<?xml version="1.0" encoding="utf-8"?>
<!-- Generator: Adobe Illustrator 27.5.0, SVG Export Plug-In . SVG Version: 6.00 Build 0)  -->
<svg version="1.1" id="Layer_1_copy_2" xmlns="http://www.w3.org/2000/svg" xmlns:xlink="http://www.w3.org/1999/xlink" x="0px"
	 y="0px" viewBox="0 0 1000 1000" style="enable-background:new 0 0 1000 1000;" xml:space="preserve">
<path style="fill:#378D95;" d="M1000,977v-54c-12.703,0-23-10.297-23-23c0-12.703,10.297-23,23-23v-54c-12.703,0-23-10.297-23-23
	c0-12.703,10.297-23,23-23v-54c-12.703,0-23-10.297-23-23c0-12.703,10.297-23,23-23v-54c-12.703,0-23-10.297-23-23
	c0-12.703,10.297-23,23-23v-54c-12.703,0-23-10.297-23-23c0-12.703,10.297-23,23-23v-54c-12.703,0-23-10.297-23-23
	c0-12.703,10.297-23,23-23v-54c-12.703,0-23-10.297-23-23c0-12.703,10.297-23,23-23v-54c-12.703,0-23-10.297-23-23
	c0-12.703,10.297-23,23-23v-54c-12.703,0-23-10.297-23-23c0-12.703,10.297-23,23-23V23c-12.703,0-23-10.297-23-23h-54
	c0,12.703-10.297,23-23,23c-12.703,0-23-10.297-23-23h-54c0,12.703-10.297,23-23,23c-12.703,0-23-10.297-23-23h-54
	c0,12.703-10.297,23-23,23s-23-10.297-23-23h-54c0,12.703-10.297,23-23,23s-23-10.297-23-23h-54c0,12.703-10.297,23-23,23
	c-12.704,0-23-10.297-23-23h-54c0,12.703-10.297,23-23,23s-23-10.297-23-23h-54c0,12.703-10.297,23-23,23s-23-10.297-23-23h-54
	c0,12.703-10.297,23-23,23c-12.703,0-23-10.297-23-23h-54c0,12.703-10.297,23-23,23S77,12.703,77,0H23c0,12.703-10.297,23-23,23v54
	c12.703,0,23,10.297,23,23c0,12.703-10.297,23-23,23v54c12.703,0,23,10.297,23,23c0,12.703-10.297,23-23,23v54
	c12.703,0,23,10.297,23,23c0,12.703-10.297,23-23,23v54c12.703,0,23,10.297,23,23c0,12.703-10.297,23-23,23v54
	c12.703,0,23,10.297,23,23c0,12.703-10.297,23-23,23v54c12.703,0,23,10.297,23,23c0,12.703-10.297,23-23,23v54
	c12.703,0,23,10.297,23,23c0,12.703-10.297,23-23,23v54c12.703,0,23,10.297,23,23c0,12.703-10.297,23-23,23v54
	c12.703,0,23,10.297,23,23c0,12.703-10.297,23-23,23v54c12.703,0,23,10.297,23,23h54c0-12.703,10.297-23,23-23s23,10.297,23,23h54
	c0-12.703,10.297-23,23-23c12.703,0,23,10.297,23,23h54c0-12.703,10.297-23,23-23s23,10.297,23,23h54c0-12.703,10.297-23,23-23
	s23,10.297,23,23h54c0-12.703,10.297-23,23-23c12.703,0,23,10.297,23,23h54c0-12.703,10.297-23,23-23s23,10.297,23,23h54
	c0-12.703,10.297-23,23-23s23,10.297,23,23h54c0-12.703,10.297-23,23-23c12.703,0,23,10.297,23,23h54c0-12.703,10.297-23,23-23
	c12.703,0,23,10.297,23,23h54C977,987.297,987.297,977,1000,977z M50,973c-12.703,0-23-10.297-23-23c0-12.703,10.297-23,23-23
	s23,10.297,23,23C73,962.703,62.703,973,50,973z M50,873c-12.703,0-23-10.297-23-23c0-12.703,10.297-23,23-23s23,10.297,23,23
	C73,862.703,62.703,873,50,873z M50,773c-12.703,0-23-10.297-23-23c0-12.703,10.297-23,23-23s23,10.297,23,23
	C73,762.703,62.703,773,50,773z M50,673c-12.703,0-23-10.297-23-23c0-12.703,10.297-23,23-23s23,10.297,23,23
	C73,662.703,62.703,673,50,673z M50,573c-12.703,0-23-10.297-23-23c0-12.703,10.297-23,23-23s23,10.297,23,23
	C73,562.703,62.703,573,50,573z M50,473c-12.703,0-23-10.297-23-23c0-12.703,10.297-23,23-23s23,10.297,23,23
	C73,462.703,62.703,473,50,473z M50,373c-12.703,0-23-10.297-23-23c0-12.703,10.297-23,23-23s23,10.297,23,23
	C73,362.703,62.703,373,50,373z M50,273c-12.703,0-23-10.297-23-23c0-12.703,10.297-23,23-23s23,10.297,23,23
	C73,262.703,62.703,273,50,273z M50,173c-12.703,0-23-10.297-23-23c0-12.703,10.297-23,23-23s23,10.297,23,23
	C73,162.703,62.703,173,50,173z M50,73c-12.703,0-23-10.297-23-23c0-12.703,10.297-23,23-23s23,10.297,23,23
	C73,62.703,62.703,73,50,73z M100,923c-12.703,0-23-10.297-23-23c0-12.703,10.297-23,23-23s23,10.297,23,23
	C123,912.703,112.703,923,100,923z M100,823c-12.703,0-23-10.297-23-23c0-12.703,10.297-23,23-23s23,10.297,23,23
	C123,812.703,112.703,823,100,823z M100,723c-12.703,0-23-10.297-23-23c0-12.703,10.297-23,23-23s23,10.297,23,23
	C123,712.703,112.703,723,100,723z M100,623c-12.703,0-23-10.297-23-23c0-12.703,10.297-23,23-23s23,10.297,23,23
	C123,612.703,112.703,623,100,623z M100,523c-12.703,0-23-10.297-23-23c0-12.703,10.297-23,23-23s23,10.297,23,23
	C123,512.703,112.703,523,100,523z M100,423c-12.703,0-23-10.297-23-23c0-12.703,10.297-23,23-23s23,10.297,23,23
	C123,412.703,112.703,423,100,423z M100,323c-12.703,0-23-10.297-23-23c0-12.703,10.297-23,23-23s23,10.297,23,23
	C123,312.703,112.703,323,100,323z M100,223c-12.703,0-23-10.297-23-23c0-12.703,10.297-23,23-23s23,10.297,23,23
	C123,212.703,112.703,223,100,223z M100,123c-12.703,0-23-10.297-23-23c0-12.703,10.297-23,23-23s23,10.297,23,23
	C123,112.703,112.703,123,100,123z M149.999,973c-12.703,0-23-10.297-23-23c0-12.703,10.297-23,23-23c12.703,0,23,10.297,23,23
	C172.999,962.703,162.703,973,149.999,973z M149.999,873c-12.703,0-23-10.297-23-23c0-12.703,10.297-23,23-23
	c12.703,0,23,10.297,23,23C172.999,862.703,162.703,873,149.999,873z M149.999,773c-12.703,0-23-10.297-23-23
	c0-12.703,10.297-23,23-23c12.703,0,23,10.297,23,23C172.999,762.703,162.703,773,149.999,773z M149.999,673
	c-12.703,0-23-10.297-23-23c0-12.703,10.297-23,23-23c12.703,0,23,10.297,23,23C172.999,662.703,162.703,673,149.999,673z
	 M149.999,573c-12.703,0-23-10.297-23-23c0-12.703,10.297-23,23-23c12.703,0,23,10.297,23,23
	C172.999,562.703,162.703,573,149.999,573z M149.999,473c-12.703,0-23-10.297-23-23c0-12.703,10.297-23,23-23
	c12.703,0,23,10.297,23,23C172.999,462.703,162.703,473,149.999,473z M149.999,373c-12.703,0-23-10.297-23-23
	c0-12.703,10.297-23,23-23c12.703,0,23,10.297,23,23C172.999,362.703,162.703,373,149.999,373z M149.999,273
	c-12.703,0-23-10.297-23-23c0-12.703,10.297-23,23-23c12.703,0,23,10.297,23,23C172.999,262.703,162.703,273,149.999,273z
	 M149.999,173c-12.703,0-23-10.297-23-23c0-12.703,10.297-23,23-23c12.703,0,23,10.297,23,23
	C172.999,162.703,162.703,173,149.999,173z M149.999,73c-12.703,0-23-10.297-23-23c0-12.703,10.297-23,23-23
	c12.703,0,23,10.297,23,23C172.999,62.703,162.703,73,149.999,73z M199.999,923c-12.703,0-23-10.297-23-23c0-12.703,10.297-23,23-23
	c12.703,0,23,10.297,23,23C222.999,912.703,212.703,923,199.999,923z M199.999,823c-12.703,0-23-10.297-23-23
	c0-12.703,10.297-23,23-23c12.703,0,23,10.297,23,23C222.999,812.703,212.703,823,199.999,823z M199.999,723
	c-12.703,0-23-10.297-23-23c0-12.703,10.297-23,23-23c12.703,0,23,10.297,23,23C222.999,712.703,212.703,723,199.999,723z
	 M199.999,623c-12.703,0-23-10.297-23-23c0-12.703,10.297-23,23-23c12.703,0,23,10.297,23,23
	C222.999,612.703,212.703,623,199.999,623z M199.999,523c-12.703,0-23-10.297-23-23c0-12.703,10.297-23,23-23
	c12.703,0,23,10.297,23,23C222.999,512.703,212.703,523,199.999,523z M199.999,423c-12.703,0-23-10.297-23-23
	c0-12.703,10.297-23,23-23c12.703,0,23,10.297,23,23C222.999,412.703,212.703,423,199.999,423z M199.999,323
	c-12.703,0-23-10.297-23-23c0-12.703,10.297-23,23-23c12.703,0,23,10.297,23,23C222.999,312.703,212.703,323,199.999,323z
	 M199.999,223c-12.703,0-23-10.297-23-23c0-12.703,10.297-23,23-23c12.703,0,23,10.297,23,23
	C222.999,212.703,212.703,223,199.999,223z M199.999,123c-12.703,0-23-10.297-23-23c0-12.703,10.297-23,23-23
	c12.703,0,23,10.297,23,23C222.999,112.703,212.703,123,199.999,123z M249.999,973c-12.703,0-23-10.297-23-23
	c0-12.703,10.297-23,23-23c12.703,0,23,10.297,23,23C273,962.703,262.703,973,249.999,973z M249.999,873c-12.703,0-23-10.297-23-23
	c0-12.703,10.297-23,23-23c12.703,0,23,10.297,23,23C273,862.703,262.703,873,249.999,873z M249.999,773c-12.703,0-23-10.297-23-23
	c0-12.703,10.297-23,23-23c12.703,0,23,10.297,23,23C273,762.703,262.703,773,249.999,773z M249.999,673c-12.703,0-23-10.297-23-23
	c0-12.703,10.297-23,23-23c12.703,0,23,10.297,23,23C273,662.703,262.703,673,249.999,673z M249.999,573c-12.703,0-23-10.297-23-23
	c0-12.703,10.297-23,23-23c12.703,0,23,10.297,23,23C273,562.703,262.703,573,249.999,573z M249.999,473c-12.703,0-23-10.297-23-23
	c0-12.703,10.297-23,23-23c12.703,0,23,10.297,23,23C273,462.703,262.703,473,249.999,473z M249.999,373c-12.703,0-23-10.297-23-23
	c0-12.703,10.297-23,23-23c12.703,0,23,10.297,23,23C273,362.703,262.703,373,249.999,373z M249.999,273c-12.703,0-23-10.297-23-23
	c0-12.703,10.297-23,23-23c12.703,0,23,10.297,23,23C273,262.703,262.703,273,249.999,273z M249.999,173c-12.703,0-23-10.297-23-23
	c0-12.703,10.297-23,23-23c12.703,0,23,10.297,23,23C273,162.703,262.703,173,249.999,173z M249.999,73c-12.703,0-23-10.297-23-23
	c0-12.703,10.297-23,23-23c12.703,0,23,10.297,23,23C273,62.703,262.703,73,249.999,73z M300,923c-12.703,0-23-10.297-23-23
	c0-12.703,10.297-23,23-23s23,10.297,23,23C323,912.703,312.703,923,300,923z M300,823c-12.703,0-23-10.297-23-23
	c0-12.703,10.297-23,23-23s23,10.297,23,23C323,812.703,312.703,823,300,823z M300,723c-12.703,0-23-10.297-23-23
	c0-12.703,10.297-23,23-23s23,10.297,23,23C323,712.703,312.703,723,300,723z M300,623c-12.703,0-23-10.297-23-23
	c0-12.703,10.297-23,23-23s23,10.297,23,23C323,612.703,312.703,623,300,623z M300,523c-12.703,0-23-10.297-23-23
	c0-12.703,10.297-23,23-23s23,10.297,23,23C323,512.703,312.703,523,300,523z M300,423c-12.703,0-23-10.297-23-23
	c0-12.703,10.297-23,23-23s23,10.297,23,23C323,412.703,312.703,423,300,423z M300,323c-12.703,0-23-10.297-23-23
	c0-12.703,10.297-23,23-23s23,10.297,23,23C323,312.703,312.703,323,300,323z M300,223c-12.703,0-23-10.297-23-23
	c0-12.703,10.297-23,23-23s23,10.297,23,23C323,212.703,312.703,223,300,223z M300,123c-12.703,0-23-10.297-23-23
	c0-12.703,10.297-23,23-23s23,10.297,23,23C323,112.703,312.703,123,300,123z M350,973c-12.703,0-23-10.297-23-23
	c0-12.703,10.297-23,23-23c12.703,0,23,10.297,23,23C373,962.703,362.703,973,350,973z M350,873c-12.703,0-23-10.297-23-23
	c0-12.703,10.297-23,23-23c12.703,0,23,10.297,23,23C373,862.703,362.703,873,350,873z M350,773c-12.703,0-23-10.297-23-23
	c0-12.703,10.297-23,23-23c12.703,0,23,10.297,23,23C373,762.703,362.703,773,350,773z M350,673c-12.703,0-23-10.297-23-23
	c0-12.703,10.297-23,23-23c12.703,0,23,10.297,23,23C373,662.703,362.703,673,350,673z M350,573c-12.703,0-23-10.297-23-23
	c0-12.703,10.297-23,23-23c12.703,0,23,10.297,23,23C373,562.703,362.703,573,350,573z M350,473c-12.703,0-23-10.297-23-23
	c0-12.703,10.297-23,23-23c12.703,0,23,10.297,23,23C373,462.703,362.703,473,350,473z M350,373c-12.703,0-23-10.297-23-23
	c0-12.703,10.297-23,23-23c12.703,0,23,10.297,23,23C373,362.703,362.703,373,350,373z M350,273c-12.703,0-23-10.297-23-23
	c0-12.703,10.297-23,23-23c12.703,0,23,10.297,23,23C373,262.703,362.703,273,350,273z M350,173c-12.703,0-23-10.297-23-23
	c0-12.703,10.297-23,23-23c12.703,0,23,10.297,23,23C373,162.703,362.703,173,350,173z M350,73c-12.703,0-23-10.297-23-23
	c0-12.703,10.297-23,23-23c12.703,0,23,10.297,23,23C373,62.703,362.703,73,350,73z M400,923c-12.703,0-23-10.297-23-23
	c0-12.703,10.297-23,23-23s23,10.297,23,23C423,912.703,412.703,923,400,923z M400,823c-12.703,0-23-10.297-23-23
	c0-12.703,10.297-23,23-23s23,10.297,23,23C423,812.703,412.703,823,400,823z M400,723c-12.703,0-23-10.297-23-23
	c0-12.703,10.297-23,23-23s23,10.297,23,23C423,712.703,412.703,723,400,723z M400,623c-12.703,0-23-10.297-23-23
	c0-12.703,10.297-23,23-23s23,10.297,23,23C423,612.703,412.703,623,400,623z M400,523c-12.703,0-23-10.297-23-23
	c0-12.703,10.297-23,23-23s23,10.297,23,23C423,512.703,412.703,523,400,523z M400,423c-12.703,0-23-10.297-23-23
	c0-12.703,10.297-23,23-23s23,10.297,23,23C423,412.703,412.703,423,400,423z M400,323c-12.703,0-23-10.297-23-23
	c0-12.703,10.297-23,23-23s23,10.297,23,23C423,312.703,412.703,323,400,323z M400,223c-12.703,0-23-10.297-23-23
	c0-12.703,10.297-23,23-23s23,10.297,23,23C423,212.703,412.703,223,400,223z M400,123c-12.703,0-23-10.297-23-23
	c0-12.703,10.297-23,23-23s23,10.297,23,23C423,112.703,412.703,123,400,123z M450,973c-12.703,0-23-10.297-23-23
	c0-12.703,10.297-23,23-23s23,10.297,23,23C473,962.703,462.703,973,450,973z M450,873c-12.703,0-23-10.297-23-23
	c0-12.703,10.297-23,23-23s23,10.297,23,23C473,862.703,462.703,873,450,873z M450,773c-12.703,0-23-10.297-23-23
	c0-12.703,10.297-23,23-23s23,10.297,23,23C473,762.703,462.703,773,450,773z M450,673c-12.703,0-23-10.297-23-23
	c0-12.703,10.297-23,23-23s23,10.297,23,23C473,662.703,462.703,673,450,673z M450,573c-12.703,0-23-10.297-23-23
	c0-12.703,10.297-23,23-23s23,10.297,23,23C473,562.703,462.703,573,450,573z M450,473c-12.703,0-23-10.297-23-23
	c0-12.703,10.297-23,23-23s23,10.297,23,23C473,462.703,462.703,473,450,473z M450,373c-12.703,0-23-10.297-23-23
	c0-12.703,10.297-23,23-23s23,10.297,23,23C473,362.703,462.703,373,450,373z M450,273c-12.703,0-23-10.297-23-23
	c0-12.703,10.297-23,23-23s23,10.297,23,23C473,262.703,462.703,273,450,273z M450,173c-12.703,0-23-10.297-23-23
	c0-12.703,10.297-23,23-23s23,10.297,23,23C473,162.703,462.703,173,450,173z M450,73c-12.703,0-23-10.297-23-23
	c0-12.703,10.297-23,23-23s23,10.297,23,23C473,62.703,462.703,73,450,73z M500,923c-12.704,0-23-10.297-23-23
	c0-12.703,10.297-23,23-23c12.703,0,23,10.297,23,23C523,912.703,512.703,923,500,923z M500,823c-12.704,0-23-10.297-23-23
	c0-12.703,10.297-23,23-23c12.703,0,23,10.297,23,23C523,812.703,512.703,823,500,823z M500,723c-12.704,0-23-10.297-23-23
	c0-12.703,10.297-23,23-23c12.703,0,23,10.297,23,23C523,712.703,512.703,723,500,723z M500,623c-12.704,0-23-10.297-23-23
	c0-12.703,10.297-23,23-23c12.703,0,23,10.297,23,23C523,612.703,512.703,623,500,623z M500,523c-12.704,0-23-10.297-23-23
	c0-12.703,10.297-23,23-23c12.703,0,23,10.297,23,23C523,512.703,512.703,523,500,523z M500,423c-12.704,0-23-10.297-23-23
	c0-12.703,10.297-23,23-23c12.703,0,23,10.297,23,23C523,412.703,512.703,423,500,423z M500,323c-12.704,0-23-10.297-23-23
	c0-12.703,10.297-23,23-23c12.703,0,23,10.297,23,23C523,312.703,512.703,323,500,323z M500,223c-12.704,0-23-10.297-23-23
	c0-12.703,10.297-23,23-23c12.703,0,23,10.297,23,23C523,212.703,512.703,223,500,223z M500,123c-12.704,0-23-10.297-23-23
	c0-12.703,10.297-23,23-23c12.703,0,23,10.297,23,23C523,112.703,512.703,123,500,123z M550,973c-12.703,0-23-10.297-23-23
	c0-12.703,10.297-23,23-23s23,10.297,23,23C573,962.703,562.703,973,550,973z M550,873c-12.703,0-23-10.297-23-23
	c0-12.703,10.297-23,23-23s23,10.297,23,23C573,862.703,562.703,873,550,873z M550,773c-12.703,0-23-10.297-23-23
	c0-12.703,10.297-23,23-23s23,10.297,23,23C573,762.703,562.703,773,550,773z M550,673c-12.703,0-23-10.297-23-23
	c0-12.703,10.297-23,23-23s23,10.297,23,23C573,662.703,562.703,673,550,673z M550,573c-12.703,0-23-10.297-23-23
	c0-12.703,10.297-23,23-23s23,10.297,23,23C573,562.703,562.703,573,550,573z M550,473c-12.703,0-23-10.297-23-23
	c0-12.703,10.297-23,23-23s23,10.297,23,23C573,462.703,562.703,473,550,473z M550,373c-12.703,0-23-10.297-23-23
	c0-12.703,10.297-23,23-23s23,10.297,23,23C573,362.703,562.703,373,550,373z M550,273c-12.703,0-23-10.297-23-23
	c0-12.703,10.297-23,23-23s23,10.297,23,23C573,262.703,562.703,273,550,273z M550,173c-12.703,0-23-10.297-23-23
	c0-12.703,10.297-23,23-23s23,10.297,23,23C573,162.703,562.703,173,550,173z M550,73c-12.703,0-23-10.297-23-23
	c0-12.703,10.297-23,23-23s23,10.297,23,23C573,62.703,562.703,73,550,73z M600,923c-12.703,0-23-10.297-23-23
	c0-12.703,10.297-23,23-23s23,10.297,23,23C623,912.703,612.703,923,600,923z M600,823c-12.703,0-23-10.297-23-23
	c0-12.703,10.297-23,23-23s23,10.297,23,23C623,812.703,612.703,823,600,823z M600,723c-12.703,0-23-10.297-23-23
	c0-12.703,10.297-23,23-23s23,10.297,23,23C623,712.703,612.703,723,600,723z M600,623c-12.703,0-23-10.297-23-23
	c0-12.703,10.297-23,23-23s23,10.297,23,23C623,612.703,612.703,623,600,623z M600,523c-12.703,0-23-10.297-23-23
	c0-12.703,10.297-23,23-23s23,10.297,23,23C623,512.703,612.703,523,600,523z M600,423c-12.703,0-23-10.297-23-23
	c0-12.703,10.297-23,23-23s23,10.297,23,23C623,412.703,612.703,423,600,423z M600,323c-12.703,0-23-10.297-23-23
	c0-12.703,10.297-23,23-23s23,10.297,23,23C623,312.703,612.703,323,600,323z M600,223c-12.703,0-23-10.297-23-23
	c0-12.703,10.297-23,23-23s23,10.297,23,23C623,212.703,612.703,223,600,223z M600,123c-12.703,0-23-10.297-23-23
	c0-12.703,10.297-23,23-23s23,10.297,23,23C623,112.703,612.703,123,600,123z M650,973c-12.703,0-23-10.297-23-23
	c0-12.703,10.297-23,23-23s23,10.297,23,23C673,962.703,662.703,973,650,973z M650,873c-12.703,0-23-10.297-23-23
	c0-12.703,10.297-23,23-23s23,10.297,23,23C673,862.703,662.703,873,650,873z M650,773c-12.703,0-23-10.297-23-23
	c0-12.703,10.297-23,23-23s23,10.297,23,23C673,762.703,662.703,773,650,773z M650,673c-12.703,0-23-10.297-23-23
	c0-12.703,10.297-23,23-23s23,10.297,23,23C673,662.703,662.703,673,650,673z M650,573c-12.703,0-23-10.297-23-23
	c0-12.703,10.297-23,23-23s23,10.297,23,23C673,562.703,662.703,573,650,573z M650,473c-12.703,0-23-10.297-23-23
	c0-12.703,10.297-23,23-23s23,10.297,23,23C673,462.703,662.703,473,650,473z M650,373c-12.703,0-23-10.297-23-23
	c0-12.703,10.297-23,23-23s23,10.297,23,23C673,362.703,662.703,373,650,373z M650,273c-12.703,0-23-10.297-23-23
	c0-12.703,10.297-23,23-23s23,10.297,23,23C673,262.703,662.703,273,650,273z M650,173c-12.703,0-23-10.297-23-23
	c0-12.703,10.297-23,23-23s23,10.297,23,23C673,162.703,662.703,173,650,173z M650,73c-12.703,0-23-10.297-23-23
	c0-12.703,10.297-23,23-23s23,10.297,23,23C673,62.703,662.703,73,650,73z M700,923c-12.703,0-23-10.297-23-23
	c0-12.703,10.297-23,23-23s23,10.297,23,23C723,912.703,712.703,923,700,923z M700,823c-12.703,0-23-10.297-23-23
	c0-12.703,10.297-23,23-23s23,10.297,23,23C723,812.703,712.703,823,700,823z M700,723c-12.703,0-23-10.297-23-23
	c0-12.703,10.297-23,23-23s23,10.297,23,23C723,712.703,712.703,723,700,723z M700,623c-12.703,0-23-10.297-23-23
	c0-12.703,10.297-23,23-23s23,10.297,23,23C723,612.703,712.703,623,700,623z M700,523c-12.703,0-23-10.297-23-23
	c0-12.703,10.297-23,23-23s23,10.297,23,23C723,512.703,712.703,523,700,523z M700,423c-12.703,0-23-10.297-23-23
	c0-12.703,10.297-23,23-23s23,10.297,23,23C723,412.703,712.703,423,700,423z M700,323c-12.703,0-23-10.297-23-23
	c0-12.703,10.297-23,23-23s23,10.297,23,23C723,312.703,712.703,323,700,323z M700,223c-12.703,0-23-10.297-23-23
	c0-12.703,10.297-23,23-23s23,10.297,23,23C723,212.703,712.703,223,700,223z M700,123c-12.703,0-23-10.297-23-23
	c0-12.703,10.297-23,23-23s23,10.297,23,23C723,112.703,712.703,123,700,123z M750,973c-12.703,0-23-10.297-23-23
	c0-12.703,10.297-23,23-23c12.703,0,23,10.297,23,23C773,962.703,762.703,973,750,973z M750,873c-12.703,0-23-10.297-23-23
	c0-12.703,10.297-23,23-23c12.703,0,23,10.297,23,23C773,862.703,762.703,873,750,873z M750,773c-12.703,0-23-10.297-23-23
	c0-12.703,10.297-23,23-23c12.703,0,23,10.297,23,23C773,762.703,762.703,773,750,773z M750,673c-12.703,0-23-10.297-23-23
	c0-12.703,10.297-23,23-23c12.703,0,23,10.297,23,23C773,662.703,762.703,673,750,673z M750,573c-12.703,0-23-10.297-23-23
	c0-12.703,10.297-23,23-23c12.703,0,23,10.297,23,23C773,562.703,762.703,573,750,573z M750,473c-12.703,0-23-10.297-23-23
	c0-12.703,10.297-23,23-23c12.703,0,23,10.297,23,23C773,462.703,762.703,473,750,473z M750,373c-12.703,0-23-10.297-23-23
	c0-12.703,10.297-23,23-23c12.703,0,23,10.297,23,23C773,362.703,762.703,373,750,373z M750,273c-12.703,0-23-10.297-23-23
	c0-12.703,10.297-23,23-23c12.703,0,23,10.297,23,23C773,262.703,762.703,273,750,273z M750,173c-12.703,0-23-10.297-23-23
	c0-12.703,10.297-23,23-23c12.703,0,23,10.297,23,23C773,162.703,762.703,173,750,173z M750,73c-12.703,0-23-10.297-23-23
	c0-12.703,10.297-23,23-23c12.703,0,23,10.297,23,23C773,62.703,762.703,73,750,73z M800,923c-12.703,0-23-10.297-23-23
	c0-12.703,10.297-23,23-23c12.703,0,23,10.297,23,23C823,912.703,812.703,923,800,923z M800,823c-12.703,0-23-10.297-23-23
	c0-12.703,10.297-23,23-23c12.703,0,23,10.297,23,23C823,812.703,812.703,823,800,823z M800,723c-12.703,0-23-10.297-23-23
	c0-12.703,10.297-23,23-23c12.703,0,23,10.297,23,23C823,712.703,812.703,723,800,723z M800,623c-12.703,0-23-10.297-23-23
	c0-12.703,10.297-23,23-23c12.703,0,23,10.297,23,23C823,612.703,812.703,623,800,623z M800,523c-12.703,0-23-10.297-23-23
	c0-12.703,10.297-23,23-23c12.703,0,23,10.297,23,23C823,512.703,812.703,523,800,523z M800,423c-12.703,0-23-10.297-23-23
	c0-12.703,10.297-23,23-23c12.703,0,23,10.297,23,23C823,412.703,812.703,423,800,423z M800,323c-12.703,0-23-10.297-23-23
	c0-12.703,10.297-23,23-23c12.703,0,23,10.297,23,23C823,312.703,812.703,323,800,323z M800,223c-12.703,0-23-10.297-23-23
	c0-12.703,10.297-23,23-23c12.703,0,23,10.297,23,23C823,212.703,812.703,223,800,223z M800,123c-12.703,0-23-10.297-23-23
	c0-12.703,10.297-23,23-23c12.703,0,23,10.297,23,23C823,112.703,812.703,123,800,123z M850,973c-12.703,0-23-10.297-23-23
	c0-12.703,10.297-23,23-23c12.703,0,23,10.297,23,23C873,962.703,862.703,973,850,973z M850,873c-12.703,0-23-10.297-23-23
	c0-12.703,10.297-23,23-23c12.703,0,23,10.297,23,23C873,862.703,862.703,873,850,873z M850,773c-12.703,0-23-10.297-23-23
	c0-12.703,10.297-23,23-23c12.703,0,23,10.297,23,23C873,762.703,862.703,773,850,773z M850,673c-12.703,0-23-10.297-23-23
	c0-12.703,10.297-23,23-23c12.703,0,23,10.297,23,23C873,662.703,862.703,673,850,673z M850,573c-12.703,0-23-10.297-23-23
	c0-12.703,10.297-23,23-23c12.703,0,23,10.297,23,23C873,562.703,862.703,573,850,573z M850,473c-12.703,0-23-10.297-23-23
	c0-12.703,10.297-23,23-23c12.703,0,23,10.297,23,23C873,462.703,862.703,473,850,473z M850,373c-12.703,0-23-10.297-23-23
	c0-12.703,10.297-23,23-23c12.703,0,23,10.297,23,23C873,362.703,862.703,373,850,373z M850,273c-12.703,0-23-10.297-23-23
	c0-12.703,10.297-23,23-23c12.703,0,23,10.297,23,23C873,262.703,862.703,273,850,273z M850,173c-12.703,0-23-10.297-23-23
	c0-12.703,10.297-23,23-23c12.703,0,23,10.297,23,23C873,162.703,862.703,173,850,173z M850,73c-12.703,0-23-10.297-23-23
	c0-12.703,10.297-23,23-23c12.703,0,23,10.297,23,23C873,62.703,862.703,73,850,73z M900,923c-12.703,0-23-10.297-23-23
	c0-12.703,10.297-23,23-23c12.703,0,23,10.297,23,23C923,912.703,912.703,923,900,923z M900,823c-12.703,0-23-10.297-23-23
	c0-12.703,10.297-23,23-23c12.703,0,23,10.297,23,23C923,812.703,912.703,823,900,823z M900,723c-12.703,0-23-10.297-23-23
	c0-12.703,10.297-23,23-23c12.703,0,23,10.297,23,23C923,712.703,912.703,723,900,723z M900,623c-12.703,0-23-10.297-23-23
	c0-12.703,10.297-23,23-23c12.703,0,23,10.297,23,23C923,612.703,912.703,623,900,623z M900,523c-12.703,0-23-10.297-23-23
	c0-12.703,10.297-23,23-23c12.703,0,23,10.297,23,23C923,512.703,912.703,523,900,523z M900,423c-12.703,0-23-10.297-23-23
	c0-12.703,10.297-23,23-23c12.703,0,23,10.297,23,23C923,412.703,912.703,423,900,423z M900,323c-12.703,0-23-10.297-23-23
	c0-12.703,10.297-23,23-23c12.703,0,23,10.297,23,23C923,312.703,912.703,323,900,323z M900,223c-12.703,0-23-10.297-23-23
	c0-12.703,10.297-23,23-23c12.703,0,23,10.297,23,23C923,212.703,912.703,223,900,223z M900,123c-12.703,0-23-10.297-23-23
	c0-12.703,10.297-23,23-23c12.703,0,23,10.297,23,23C923,112.703,912.703,123,900,123z M950,973c-12.703,0-23-10.297-23-23
	c0-12.703,10.297-23,23-23c12.703,0,23,10.297,23,23C973,962.703,962.703,973,950,973z M950,873c-12.703,0-23-10.297-23-23
	c0-12.703,10.297-23,23-23c12.703,0,23,10.297,23,23C973,862.703,962.703,873,950,873z M950,773c-12.703,0-23-10.297-23-23
	c0-12.703,10.297-23,23-23c12.703,0,23,10.297,23,23C973,762.703,962.703,773,950,773z M950,673c-12.703,0-23-10.297-23-23
	c0-12.703,10.297-23,23-23c12.703,0,23,10.297,23,23C973,662.703,962.703,673,950,673z M950,573c-12.703,0-23-10.297-23-23
	c0-12.703,10.297-23,23-23c12.703,0,23,10.297,23,23C973,562.703,962.703,573,950,573z M950,473c-12.703,0-23-10.297-23-23
	c0-12.703,10.297-23,23-23c12.703,0,23,10.297,23,23C973,462.703,962.703,473,950,473z M950,373c-12.703,0-23-10.297-23-23
	c0-12.703,10.297-23,23-23c12.703,0,23,10.297,23,23C973,362.703,962.703,373,950,373z M950,273c-12.703,0-23-10.297-23-23
	c0-12.703,10.297-23,23-23c12.703,0,23,10.297,23,23C973,262.703,962.703,273,950,273z M950,173c-12.703,0-23-10.297-23-23
	c0-12.703,10.297-23,23-23c12.703,0,23,10.297,23,23C973,162.703,962.703,173,950,173z M950,73c-12.703,0-23-10.297-23-23
	c0-12.703,10.297-23,23-23c12.703,0,23,10.297,23,23C973,62.703,962.703,73,950,73z"/>
<g>
	<circle style="fill:#5C738D;" cx="950" cy="550" r="23"/>
	<circle style="fill:#5C738D;" cx="149.999" cy="950" r="23"/>
	<circle style="fill:#5C738D;" cx="550" cy="750" r="23"/>
	<circle style="fill:#5C738D;" cx="750" cy="950" r="23"/>
	<circle style="fill:#5C738D;" cx="350" cy="750" r="23"/>
	<circle style="fill:#5C738D;" cx="350" cy="150" r="23"/>
	<circle style="fill:#5C738D;" cx="550" cy="150" r="23"/>
	<circle style="fill:#5C738D;" cx="750" cy="150" r="23"/>
	<circle style="fill:#5C738D;" cx="950" cy="150" r="23"/>
	<circle style="fill:#5C738D;" cx="550" cy="350" r="23"/>
	<circle style="fill:#5C738D;" cx="750" cy="350" r="23"/>
	<circle style="fill:#5C738D;" cx="950" cy="350" r="23"/>
	<circle style="fill:#5C738D;" cx="149.999" cy="550" r="23"/>
	<circle style="fill:#5C738D;" cx="350" cy="550" r="23"/>
	<circle style="fill:#5C738D;" cx="750" cy="750" r="23"/>
	<circle style="fill:#5C738D;" cx="950" cy="750" r="23"/>
	<circle style="fill:#5C738D;" cx="350" cy="950" r="23"/>
	<circle style="fill:#5C738D;" cx="149.999" cy="350" r="23"/>
	<circle style="fill:#5C738D;" cx="149.999" cy="150" r="23"/>
	<circle style="fill:#5C738D;" cx="950" cy="950" r="23"/>
	<circle style="fill:#5C738D;" cx="550" cy="950" r="23"/>
	<circle style="fill:#5C738D;" cx="350" cy="350" r="23"/>
	<circle style="fill:#5C738D;" cx="550" cy="550" r="23"/>
	<circle style="fill:#5C738D;" cx="750" cy="550" r="23"/>
	<circle style="fill:#5C738D;" cx="149.999" cy="750" r="23"/>
</g>
<g>
	<circle style="fill:#8DCCA9;" cx="850" cy="50" r="23"/>
	<circle style="fill:#8DCCA9;" cx="249.999" cy="250" r="23"/>
	<circle style="fill:#8DCCA9;" cx="850" cy="650" r="23"/>
	<circle style="fill:#8DCCA9;" cx="50" cy="650" r="23"/>
	<circle style="fill:#8DCCA9;" cx="50" cy="850" r="23"/>
	<circle style="fill:#8DCCA9;" cx="650" cy="50" r="23"/>
	<circle style="fill:#8DCCA9;" cx="650" cy="250" r="23"/>
	<circle style="fill:#8DCCA9;" cx="850" cy="250" r="23"/>
	<circle style="fill:#8DCCA9;" cx="50" cy="450" r="23"/>
	<circle style="fill:#8DCCA9;" cx="450" cy="450" r="23"/>
	<circle style="fill:#8DCCA9;" cx="650" cy="450" r="23"/>
	<circle style="fill:#8DCCA9;" cx="850" cy="450" r="23"/>
	<circle style="fill:#8DCCA9;" cx="249.999" cy="650" r="23"/>
	<circle style="fill:#8DCCA9;" cx="450" cy="650" r="23"/>
	<circle style="fill:#8DCCA9;" cx="650" cy="650" r="23"/>
	<circle style="fill:#8DCCA9;" cx="249.999" cy="850" r="23"/>
	<circle style="fill:#8DCCA9;" cx="650" cy="850" r="23"/>
	<circle style="fill:#8DCCA9;" cx="850" cy="850" r="23"/>
	<circle style="fill:#8DCCA9;" cx="50" cy="50" r="23"/>
	<circle style="fill:#8DCCA9;" cx="50" cy="250" r="23"/>
	<circle style="fill:#8DCCA9;" cx="249.999" cy="450" r="23"/>
	<circle style="fill:#8DCCA9;" cx="450" cy="50" r="23"/>
	<circle style="fill:#8DCCA9;" cx="249.999" cy="50" r="23"/>
	<circle style="fill:#8DCCA9;" cx="450" cy="250" r="23"/>
	
		<ellipse transform="matrix(0.9999 -0.0116 0.0116 0.9999 -9.8342 5.2796)" style="fill:#8DCCA9;" cx="450" cy="850" rx="23" ry="23"/>
</g>
<g>
	<path style="fill:#D2D9AB;" d="M500,277c-12.704,0-23,10.297-23,23c0,12.703,10.297,23,23,23c12.703,0,23-10.297,23-23
		C523,287.297,512.703,277,500,277z"/>
	<circle style="fill:#D2D9AB;" cx="300" cy="500" r="23"/>
	<path style="fill:#D2D9AB;" d="M500,477c-12.704,0-23,10.297-23,23c0,12.703,10.297,23,23,23c12.703,0,23-10.297,23-23
		C523,487.297,512.703,477,500,477z"/>
	<circle style="fill:#D2D9AB;" cx="900" cy="500" r="23"/>
	<circle style="fill:#D2D9AB;" cx="300" cy="100" r="23"/>
	<path style="fill:#D2D9AB;" d="M500,77c-12.704,0-23,10.297-23,23c0,12.703,10.297,23,23,23c12.703,0,23-10.297,23-23
		C523,87.297,512.703,77,500,77z"/>
	<circle style="fill:#D2D9AB;" cx="100" cy="300" r="23"/>
	<circle style="fill:#D2D9AB;" cx="700" cy="300" r="23"/>
	<circle style="fill:#D2D9AB;" cx="100" cy="500" r="23"/>
	<circle style="fill:#D2D9AB;" cx="700" cy="500" r="23"/>
	<circle style="fill:#D2D9AB;" cx="100" cy="700" r="23"/>
	<path style="fill:#D2D9AB;" d="M500,677c-12.704,0-23,10.297-23,23c0,12.703,10.297,23,23,23c12.703,0,23-10.297,23-23
		C523,687.297,512.703,677,500,677z"/>
	<circle style="fill:#D2D9AB;" cx="900" cy="700" r="23"/>
	<circle style="fill:#D2D9AB;" cx="300" cy="900" r="23"/>
	<path style="fill:#D2D9AB;" d="M500,877c-12.704,0-23,10.297-23,23c0,12.703,10.297,23,23,23c12.703,0,23-10.297,23-23
		C523,887.297,512.703,877,500,877z"/>
	<circle style="fill:#D2D9AB;" cx="700" cy="900" r="23"/>
	<circle style="fill:#D2D9AB;" cx="300" cy="300" r="23"/>
	<circle style="fill:#D2D9AB;" cx="900" cy="300" r="23"/>
	<circle style="fill:#D2D9AB;" cx="300" cy="700" r="23"/>
	<circle style="fill:#D2D9AB;" cx="700" cy="700" r="23"/>
	<circle style="fill:#D2D9AB;" cx="900" cy="900" r="23"/>
	<circle style="fill:#D2D9AB;" cx="100" cy="100" r="23"/>
	<circle style="fill:#D2D9AB;" cx="700" cy="100" r="23"/>
	<circle style="fill:#D2D9AB;" cx="900" cy="100" r="23"/>
	<circle style="fill:#D2D9AB;" cx="100" cy="900" r="23"/>
</g>
<g>
	<circle style="fill:#75BD9F;" cx="50" cy="550" r="23"/>
	<circle style="fill:#75BD9F;" cx="650" cy="550" r="23"/>
	<circle style="fill:#75BD9F;" cx="850" cy="750" r="23"/>
	<circle style="fill:#75BD9F;" cx="850" cy="150" r="23"/>
	<circle style="fill:#75BD9F;" cx="50" cy="350" r="23"/>
	<circle style="fill:#75BD9F;" cx="50" cy="750" r="23"/>
	<circle style="fill:#75BD9F;" cx="450" cy="350" r="23"/>
	<circle style="fill:#75BD9F;" cx="450" cy="750" r="23"/>
	<circle style="fill:#75BD9F;" cx="450" cy="150" r="23"/>
	<circle style="fill:#75BD9F;" cx="650" cy="150" r="23"/>
	<circle style="fill:#75BD9F;" cx="249.999" cy="350" r="23"/>
	<circle style="fill:#75BD9F;" cx="850" cy="350" r="23"/>
	<circle style="fill:#75BD9F;" cx="249.999" cy="550" r="23"/>
	<circle style="fill:#75BD9F;" cx="450" cy="550" r="23"/>
	<circle style="fill:#75BD9F;" cx="850" cy="550" r="23"/>
	<circle style="fill:#75BD9F;" cx="249.999" cy="750" r="23"/>
	<circle style="fill:#75BD9F;" cx="650" cy="750" r="23"/>
	<circle style="fill:#75BD9F;" cx="650" cy="950" r="23"/>
	<circle style="fill:#75BD9F;" cx="50" cy="950" r="23"/>
	<circle style="fill:#75BD9F;" cx="450" cy="950" r="23"/>
	<circle style="fill:#75BD9F;" cx="650" cy="350" r="23"/>
	<circle style="fill:#75BD9F;" cx="50" cy="150" r="23"/>
	<circle style="fill:#75BD9F;" cx="249.999" cy="150" r="23"/>
	<circle style="fill:#75BD9F;" cx="249.999" cy="950" r="23"/>
	<circle style="fill:#75BD9F;" cx="850" cy="950" r="23"/>
</g>
<g>
	<circle style="fill:#33AD9E;" cx="199.999" cy="100" r="23"/>
	<circle style="fill:#33AD9E;" cx="600" cy="300" r="23"/>
	<path style="fill:#33AD9E;" d="M977,400c0,12.703,10.297,23,23,23v-46C987.297,377,977,387.297,977,400z"/>
	<path style="fill:#33AD9E;" d="M23,400c0-12.703-10.297-23-23-23v46C12.703,423,23,412.703,23,400z"/>
	<circle style="fill:#33AD9E;" cx="400" cy="500" r="23"/>
	<circle style="fill:#33AD9E;" cx="800" cy="900" r="23"/>
	<path style="fill:#33AD9E;" d="M400,977c-12.703,0-23,10.297-23,23h46C423,987.297,412.703,977,400,977z"/>
	<path style="fill:#33AD9E;" d="M400,23c12.703,0,23-10.297,23-23h-46C377,12.703,387.296,23,400,23z"/>
	<circle style="fill:#33AD9E;" cx="350" cy="850" r="23"/>
	<circle style="fill:#33AD9E;" cx="600" cy="100" r="23"/>
	<path style="fill:#33AD9E;" d="M977,200c0,12.703,10.297,23,23,23v-46C987.297,177,977,187.297,977,200z"/>
	<circle style="fill:#33AD9E;" cx="800" cy="400" r="23"/>
	<circle style="fill:#33AD9E;" cx="350" cy="650" r="23"/>
	<circle style="fill:#33AD9E;" cx="750" cy="850" r="23"/>
	<path style="fill:#33AD9E;" d="M977,900c0,12.703,10.297,23,23,23v-46C987.297,877,977,887.297,977,900z"/>
	<path style="fill:#33AD9E;" d="M23,900c0-12.703-10.297-23-23-23v46C12.703,923,23,912.703,23,900z"/>
	<path style="fill:#33AD9E;" d="M100,977c-12.703,0-23,10.297-23,23h46C123,987.297,112.703,977,100,977z"/>
	<path style="fill:#33AD9E;" d="M700,977c-12.703,0-23,10.297-23,23h46C723,987.297,712.703,977,700,977z"/>
	<path style="fill:#33AD9E;" d="M100,23c12.703,0,23-10.297,23-23H77C77,12.703,87.296,23,100,23z"/>
	<path style="fill:#33AD9E;" d="M700,23c12.703,0,23-10.297,23-23h-46C677,12.703,687.297,23,700,23z"/>
	<circle style="fill:#33AD9E;" cx="550" cy="50" r="23"/>
	<circle style="fill:#33AD9E;" cx="800" cy="100" r="23"/>
	<path style="fill:#33AD9E;" d="M977,100c0,12.703,10.297,23,23,23V77C987.297,77,977,87.297,977,100z"/>
	<path style="fill:#33AD9E;" d="M23,100c0-12.703-10.297-23-23-23v46C12.703,123,23,112.703,23,100z"/>
	<circle style="fill:#33AD9E;" cx="100" cy="200" r="23"/>
	<circle style="fill:#33AD9E;" cx="400" cy="200" r="23"/>
	<circle style="fill:#33AD9E;" cx="700" cy="200" r="23"/>
	<circle style="fill:#33AD9E;" cx="900" cy="200" r="23"/>
	<circle style="fill:#33AD9E;" cx="199.999" cy="400" r="23"/>
	<circle style="fill:#33AD9E;" cx="600" cy="400" r="23"/>
	<circle style="fill:#33AD9E;" cx="750" cy="650" r="23"/>
	<circle style="fill:#33AD9E;" cx="400" cy="700" r="23"/>
	<circle style="fill:#33AD9E;" cx="199.999" cy="800" r="23"/>
	<circle style="fill:#33AD9E;" cx="800" cy="800" r="23"/>
	<circle style="fill:#33AD9E;" cx="400" cy="900" r="23"/>
	<path style="fill:#33AD9E;" d="M900,977c-12.703,0-23,10.297-23,23h46C923,987.297,912.703,977,900,977z"/>
	<path style="fill:#33AD9E;" d="M900,23c12.703,0,23-10.297,23-23h-46C877,12.703,887.297,23,900,23z"/>
	<circle style="fill:#33AD9E;" cx="149.999" cy="50" r="23"/>
	<circle style="fill:#33AD9E;" cx="950" cy="50" r="23"/>
	<circle style="fill:#33AD9E;" cx="199.999" cy="200" r="23"/>
	<path style="fill:#33AD9E;" d="M500,177c-12.704,0-23,10.297-23,23c0,12.703,10.297,23,23,23c12.703,0,23-10.297,23-23
		C523,187.297,512.703,177,500,177z"/>
	<path style="fill:#33AD9E;" d="M23,200c0-12.703-10.297-23-23-23v46C12.703,223,23,212.703,23,200z"/>
	<circle style="fill:#33AD9E;" cx="350" cy="250" r="23"/>
	<circle style="fill:#33AD9E;" cx="550" cy="250" r="23"/>
	<circle style="fill:#33AD9E;" cx="750" cy="250" r="23"/>
	<circle style="fill:#33AD9E;" cx="199.999" cy="300" r="23"/>
	<circle style="fill:#33AD9E;" cx="400" cy="300" r="23"/>
	<circle style="fill:#33AD9E;" cx="400" cy="400" r="23"/>
	<circle style="fill:#33AD9E;" cx="149.999" cy="450" r="23"/>
	<circle style="fill:#33AD9E;" cx="350" cy="450" r="23"/>
	<circle style="fill:#33AD9E;" cx="950" cy="450" r="23"/>
	<circle style="fill:#33AD9E;" cx="600" cy="500" r="23"/>
	<circle style="fill:#33AD9E;" cx="800" cy="500" r="23"/>
	<circle style="fill:#33AD9E;" cx="199.999" cy="600" r="23"/>
	<path style="fill:#33AD9E;" d="M500,577c-12.704,0-23,10.297-23,23c0,12.703,10.297,23,23,23c12.703,0,23-10.297,23-23
		C523,587.297,512.703,577,500,577z"/>
	<circle style="fill:#33AD9E;" cx="600" cy="600" r="23"/>
	<circle style="fill:#33AD9E;" cx="700" cy="600" r="23"/>
	<circle style="fill:#33AD9E;" cx="800" cy="600" r="23"/>
	<circle style="fill:#33AD9E;" cx="950" cy="650" r="23"/>
	<circle style="fill:#33AD9E;" cx="199.999" cy="700" r="23"/>
	<circle style="fill:#33AD9E;" cx="600" cy="700" r="23"/>
	<circle style="fill:#33AD9E;" cx="800" cy="700" r="23"/>
	<circle style="fill:#33AD9E;" cx="100" cy="800" r="23"/>
	<circle style="fill:#33AD9E;" cx="400" cy="800" r="23"/>
	<circle style="fill:#33AD9E;" cx="550" cy="850" r="23"/>
	<circle style="fill:#33AD9E;" cx="199.999" cy="900" r="23"/>
	<path style="fill:#33AD9E;" d="M500,977c-12.704,0-23,10.297-23,23h46C523,987.297,512.703,977,500,977z"/>
	<path style="fill:#33AD9E;" d="M500,23c12.703,0,23-10.297,23-23h-46C477,12.703,487.296,23,500,23z"/>
	<circle style="fill:#33AD9E;" cx="400" cy="100" r="23"/>
	<circle style="fill:#33AD9E;" cx="550" cy="450" r="23"/>
	<circle style="fill:#33AD9E;" cx="750" cy="450" r="23"/>
	<path style="fill:#33AD9E;" d="M977,500c0,12.703,10.297,23,23,23v-46C987.297,477,977,487.297,977,500z"/>
	<path style="fill:#33AD9E;" d="M23,500c0-12.703-10.297-23-23-23v46C12.703,523,23,512.703,23,500z"/>
	<circle style="fill:#33AD9E;" cx="149.999" cy="650" r="23"/>
	<circle style="fill:#33AD9E;" cx="900" cy="800" r="23"/>
	<path style="fill:#33AD9E;" d="M199.999,977c-12.703,0-23,10.297-23,23h46C222.999,987.297,212.703,977,199.999,977z"/>
	<path style="fill:#33AD9E;" d="M199.999,23c12.703,0,23-10.297,23-23h-46C176.999,12.703,187.296,23,199.999,23z"/>
	<path style="fill:#33AD9E;" d="M500,777c-12.704,0-23,10.297-23,23c0,12.703,10.297,23,23,23c12.703,0,23-10.297,23-23
		C523,787.297,512.703,777,500,777z"/>
	<circle style="fill:#33AD9E;" cx="900" cy="600" r="23"/>
	<circle style="fill:#33AD9E;" cx="750" cy="50" r="23"/>
	<circle style="fill:#33AD9E;" cx="300" cy="200" r="23"/>
	<circle style="fill:#33AD9E;" cx="800" cy="200" r="23"/>
	<circle style="fill:#33AD9E;" cx="950" cy="250" r="23"/>
	<circle style="fill:#33AD9E;" cx="300" cy="600" r="23"/>
	<path style="fill:#33AD9E;" d="M977,600c0,12.703,10.297,23,23,23v-46C987.297,577,977,587.297,977,600z"/>
	<path style="fill:#33AD9E;" d="M23,600c0-12.703-10.297-23-23-23v46C12.703,623,23,612.703,23,600z"/>
	<circle style="fill:#33AD9E;" cx="600" cy="800" r="23"/>
	<path style="fill:#33AD9E;" d="M977,800c0,12.703,10.297,23,23,23v-46C987.297,777,977,787.297,977,800z"/>
	<path style="fill:#33AD9E;" d="M23,800c0-12.703-10.297-23-23-23v46C12.703,823,23,812.703,23,800z"/>
	<circle style="fill:#33AD9E;" cx="149.999" cy="850" r="23"/>
	<path style="fill:#33AD9E;" d="M300,977c-12.703,0-23,10.297-23,23h46C323,987.297,312.703,977,300,977z"/>
	<path style="fill:#33AD9E;" d="M300,23c12.703,0,23-10.297,23-23h-46C277,12.703,287.296,23,300,23z"/>
	<circle style="fill:#33AD9E;" cx="900" cy="400" r="23"/>
	<circle style="fill:#33AD9E;" cx="350" cy="50" r="23"/>
	<circle style="fill:#33AD9E;" cx="600" cy="200" r="23"/>
	<circle style="fill:#33AD9E;" cx="149.999" cy="250" r="23"/>
	<circle style="fill:#33AD9E;" cx="800" cy="300" r="23"/>
	<path style="fill:#33AD9E;" d="M977,300c0,12.703,10.297,23,23,23v-46C987.297,277,977,287.297,977,300z"/>
	<path style="fill:#33AD9E;" d="M23,300c0-12.703-10.297-23-23-23v46C12.703,323,23,312.703,23,300z"/>
	<circle style="fill:#33AD9E;" cx="100" cy="400" r="23"/>
	<circle style="fill:#33AD9E;" cx="300" cy="400" r="23"/>
	<path style="fill:#33AD9E;" d="M500,377c-12.704,0-23,10.297-23,23c0,12.703,10.297,23,23,23c12.703,0,23-10.297,23-23
		C523,387.297,512.703,377,500,377z"/>
	<circle style="fill:#33AD9E;" cx="700" cy="400" r="23"/>
	<circle style="fill:#33AD9E;" cx="199.999" cy="500" r="23"/>
	<circle style="fill:#33AD9E;" cx="100" cy="600" r="23"/>
	<circle style="fill:#33AD9E;" cx="400" cy="600" r="23"/>
	<circle style="fill:#33AD9E;" cx="550" cy="650" r="23"/>
	<path style="fill:#33AD9E;" d="M977,700c0,12.703,10.297,23,23,23v-46C987.297,677,977,687.297,977,700z"/>
	<path style="fill:#33AD9E;" d="M23,700c0-12.703-10.297-23-23-23v46C12.703,723,23,712.703,23,700z"/>
	<circle style="fill:#33AD9E;" cx="300" cy="800" r="23"/>
	<circle style="fill:#33AD9E;" cx="700" cy="800" r="23"/>
	<circle style="fill:#33AD9E;" cx="950" cy="850" r="23"/>
	<circle style="fill:#33AD9E;" cx="600" cy="900" r="23"/>
	<path style="fill:#33AD9E;" d="M600,977c-12.703,0-23,10.297-23,23h46C623,987.297,612.703,977,600,977z"/>
	<path style="fill:#33AD9E;" d="M800,977c-12.703,0-23,10.297-23,23h46C823,987.297,812.703,977,800,977z"/>
	<path style="fill:#33AD9E;" d="M1000,977c-12.703,0-23,10.297-23,23h23V977z"/>
	<path style="fill:#33AD9E;" d="M0,977v23h23C23,987.297,12.703,977,0,977z"/>
	<path style="fill:#33AD9E;" d="M600,23c12.703,0,23-10.297,23-23h-46C577,12.703,587.297,23,600,23z"/>
	<path style="fill:#33AD9E;" d="M800,23c12.703,0,23-10.297,23-23h-46C777,12.703,787.297,23,800,23z"/>
	<path style="fill:#33AD9E;" d="M1000,23V0h-23C977,12.703,987.297,23,1000,23z"/>
	<path style="fill:#33AD9E;" d="M23,0H0v23C12.703,23,23,12.703,23,0z"/>
</g>
</svg>
